# xmcd
#
# Track frame offsets:
#	150
#	36614
#	60634
#	97349
#	126137
#	145800
#	169844
#	191362
#	218844
#	238007
#	257894
#	291056
#
# Disc length: 4760 seconds
#
# Revision: 0
# Processed by: cddbd v1.5.2PL0 Copyright (c) Steve Scherf et al.
# Submitted via: EasyCDDAExtractor 2010.6.0.0
#
DISCID=bc12960c
DTITLE=Various Artist - The Chic Organization - Disco Edition
DYEAR=2013
DGENRE=Disco
TTITLE0=Chic - Good Times (12" Version)
TTITLE1=Diana Ross - I'm Coming Out
TTITLE2=Carly Simon - Why (12" Version)
TTITLE3=Chic - My Forbidden Lover (12" Version)
TTITLE4=Sister Sledge - Thinking Of You
TTITLE5=Johnny Mathis - I Love My Lady
TTITLE6=Sheila and B. Devotion - Your Love Is Good
TTITLE7=Madonna - Like A Virgin (12" Version)
TTITLE8=Sister Sledge - Frankie
TTITLE9=Duran Duran - The Reflex
TTITLE10=Chic - The Chic Mini Mix
TTITLE11=Chic - Medly (Live At Glastonbury 2013)
EXTD=
EXTT0=
EXTT1=
EXTT2=
EXTT3=
EXTT4=
EXTT5=
EXTT6=
EXTT7=
EXTT8=
EXTT9=
EXTT10=
EXTT11=
PLAYORDER=
